# xmcd CD database file
#
# Track frame offsets:
#	150
#	16995
#	30591
#	44914
#	57611
#	71364
#	86708
#	102179
#	120518
#	133814
#	147498
#	162313
#	174197
#	190377
#	204212
#	214885
#
# Disc length: 3059 seconds
#
# Revision: 2
# Processed by: cddbd v1.5.2PL0 Copyright (c) Steve Scherf et al.
# Submitted via: CDex 2.21
#
DISCID=eb0bf110
DTITLE=Nancy Wood Featuring George and The Lucky Riders - Nancy Wood Featuring George and The Lucky Riders
DYEAR=2014
DGENRE=Country
TTITLE0=We Never Give Up
TTITLE1=Ready for the Times to Get Bett
TTITLE2=Good and Lonesome
TTITLE3=In the Movies
TTITLE4=Honky Tonk Lies
TTITLE5=I'll Find It Where I Can
TTITLE6=Sentimental Ol' You
TTITLE7=Blue Bayou
TTITLE8=Loneliness Is Just a Point of Viev
TTITLE9=Love in Your Eyes
TTITLE10=Don't Light the Fire
TTITLE11=I Just Want to Be with You
TTITLE12=I Hate Love
TTITLE13=I Don't Feel Like a Movie Tonight
TTITLE14=Shoppin' for Love
TTITLE15=I'll Be the Last to Know
EXTD=YEAR: 2014
EXTT0=
EXTT1=
EXTT2=
EXTT3=
EXTT4=
EXTT5=
EXTT6=
EXTT7=
EXTT8=
EXTT9=
EXTT10=
EXTT11=
EXTT12=
EXTT13=
EXTT14=
EXTT15=
PLAYORDER=
